<?xml version="1.0" encoding="UTF-8"?>
<svg id="Layer_1" xmlns="http://www.w3.org/2000/svg" viewBox="0 0 529.47 502.96">
  <defs>
    <style>
      .cls-1 {
        fill: #fff;
      }
    </style>
  </defs>
  <path class="cls-1" d="M300.75,502.72c-59.63,0-118.78,0-178.58,0,1.75-4.28,3.11-7.74,6.36-9.95,15.75-10.67,31.57-21.24,47.24-32.02,3.06-2.1,5.71-2.41,9.11-1.02,32.95,13.48,67.46,18.49,102.64,15.44,74.26-6.44,131.97-40.95,171.19-104.96,14.03-22.9,23.27-47.78,27.39-74.26,10.2-65.46-4.23-124.68-46.38-176.43-29.77-36.56-67.6-61.24-112.62-74.75-27.75-8.33-56.21-10.96-85.06-7.81-58.04,6.34-106.79,31.32-145.96,74.46-29.81,32.83-47.46,71.82-53.65,115.58-7.38,52.17,3.12,101.03,30.21,146.26,8.28,13.83,18.12,26.53,29.03,38.38,4.79,5.2,4.75,5.1.52,10.63-18.21,23.85-36.47,47.67-54.44,71.69-2.94,3.93-5.25,4.44-9.22,1.88C14.47,480.36.11,459.43.14,429.82.24,310.56.46,191.31,0,72.05-.12,39.81,23.83,7.7,56.56,1.6,61.22.73,65.91.01,70.69.01c129.59.01,259.18-.05,388.77.04,34.39.02,63.75,25.68,69.11,59.72.62,3.91.88,7.79.88,11.73,0,120.73-.03,241.47.02,362.2.01,32.12-29.01,69.45-68.79,69.12-53.14-.44-106.29-.1-159.93-.09M468.04,60.09c-2.22-2.36-1.08-5.3-1.23-7.96-.21-3.75-2.15-5.22-5.66-5.24-4.55-.03-6.26,1.69-6.31,8.39-.04,4.48-1.79,5.83-5.85,5.37-1.13-.13-2.29.08-3.43,0-3.74-.29-5.34,1.61-5.65,5.14-.48,5.53.82,7.05,6.37,7.17q8.5.18,8.99,8.34c0,.16.03.33.04.49.18,3.25,1.01,5.89,5.1,5.62,3.76-.25,6.52-1.04,6.47-5.93-.09-8.08.17-8.08,8.33-8.43.82-.04,1.63-.1,2.45-.11,2.65-.05,3.65-1.53,3.89-4.04.66-6.74-.59-8.22-7.27-8.27-1.8-.01-3.59-.13-6.24-.52M63.67,51.48c-.51,8.69,1.56,9.3-9.14,9.17-.65,0-1.31.02-1.96.06-2.93.17-4.33,1.63-4.49,4.67-.32,6.08.91,7.51,7.05,7.58,1.31.01,2.62,0,3.92.04,3.24.12,4.81,1.69,4.34,5.04-.16,1.13-.38,2.27-.36,3.4.07,4.01,1.93,5.75,6.16,5.61,4-.13,5.95-1.18,5.89-5.64-.09-7.86.14-8.08,8.29-8.16,4.66-.04,6.47-1.89,6.42-6.45-.04-4.62-2.04-6.32-6.62-6.26-7.93.11-8.03-.08-8.15-7.94-.05-2.97-.65-5.3-4.02-5.59-3.07-.26-6.49-.87-7.34,4.47Z"/>
  <path class="cls-1" d="M408.52,283.3c8.64-5.19,16.13-11.28,23.29-17.82,3.25-2.96,4.64-6.24,4.57-10.75-.33-20.73-4.13-40.7-12.3-59.78-2.53-5.91-3.9-6.02-7.9-1.07-11.36,14.03-23.08,27.71-37.11,39.22-15.93,13.08-34.15,21.24-54.23,25.35-3.09.63-5.4,1.83-7.33,4.34-17.06,22.24-34.62,44.12-51.1,66.78-6.7,9.22-9.73,20.71-13.63,31.49-2.9,8.01-5.59,16.1-8.06,24.26-1.26,4.15-3.46,7.22-7.04,9.63-24.46,16.51-48.85,33.15-73.3,49.67-15.76,10.65-31.57,21.22-47.41,31.76-3.78,2.51-6.75,5.54-8.49,9.84-1.16,2.87-3.31,5.37-4.27,8.29-2.37,7.23-7.31,8.88-14.35,8.37-7.61-.56-15.3-.13-22.77-.13-.79-2.7.84-3.68,1.78-4.9,27.69-36.01,56.12-71.42,85.09-106.41,10.56-12.75,20.99-25.62,31.41-38.49,1.35-1.67,3.78-3.25,2.29-5.93-1.23-2.23-3.65-1.87-5.76-1.87-19.68-.02-39.37-.03-59.05-.01-1.59,0-3.59-.46-4.4,1.36-.76,1.68.61,3.11,1.52,4.44,9.15,13.58,5.2,11.03,20.53,11.38,3.19.07,6.46-.4,10.46.88-3.5,4.53-6.59,8.64-9.79,12.67-5,6.29-10.08,12.51-15.12,18.77-3.85,4.79-4.6,4.93-8.5.46-21.08-24.16-37.29-51.1-45.87-82.19-14.79-53.61-9.17-105.17,18.64-153.31,29.92-51.8,75.28-83.34,133.65-96.1,6.24-1.37,12.58-3.2,19.7-2.32-.62,1-.82,1.65-1.26,1.99-8.2,6.24-12.04,14.91-13.75,24.72-.47,2.72-1.56,3.95-4.47,4.77-17.41,4.9-34.17,11.42-49.77,20.75-3.72,2.23-4.62,4.85-2.8,8.51,11.03,22.14,23.65,43.24,42.59,59.64,10.75,9.31,24.41,12.4,37.91,15.29,4.1.88,5.04-.9,2.83-5.38-5.95-12.09-6.51-24.26-.76-36.49,7.81-16.6,24.88-25.12,43.57-21.98,16.16,2.72,28.84,16.7,30.91,33.87,2.13,17.68-4.61,30.94-19.65,40.18-.97.6-2.11.96-2.56,2.79,4.68,3.68,10.59,3.28,16.02,3.61,19.36,1.17,35.38-6.86,49.49-19.29,10.86-9.56,20.23-20.55,29.75-31.41,2.75-3.14,1.38-5.23-.56-7.67-12.67-15.93-27.57-29.36-44.77-40.27-16.48-10.46-34.2-17.96-53.08-22.8-1.5-.38-3.49-.44-3.79-2.55-.76-5.38-1.89-10.61-4.47-15.48-2.47-4.66-5.84-8.6-10.41-12.58,4.22-1.05,7.51-.47,10.75.08,42.32,7.08,79.03,25.63,109.9,55.23,30.58,29.32,50.18,64.86,57.25,106.92,8.07,47.98,1.05,93.49-23.96,135.43-28.29,47.44-70.29,76.34-123.98,88.63-35.12,8.04-69.88,6.5-104.39-3.31-1.65-.47-3.63-.43-4.85-2.13-.02-2.49,2.14-3.13,3.66-4.17,15.29-10.47,30.57-20.95,45.97-31.25,3.06-2.05,4.98-4.4,5.78-8.02,2.87-12.98,6.93-25.61,11.48-38.08,2.88-7.87,6.52-15.37,11.61-22.14,8.68-11.52,17.22-23.16,25.74-34.8,1.93-2.63,3.9-3.47,7.44-2.98,32.27,4.42,63.08.6,91.45-17.52M102.53,219.48c28.35-7.03,54.45-1.22,79.04,13.67,9.7,5.87,18.81,12.47,27.44,19.81,4.11,3.49,5.89,2.89,7.86-2.17.95-2.44,1.52-5.05,2.7-7.36,2.23-4.38.88-7.3-2.93-9.96-14.38-10.07-29.06-19.63-45.08-26.92-19.97-9.08-40.76-11.59-62.31-7.2-5.69,1.16-12.02,11.7-10.58,17.46.39,1.55,1.36,2.6,3.86,2.67Z"/>
  <path class="cls-1" d="M240.62,72.3c14.51-17.15,37.97-16.85,49.55,1.15,13.14,20.43-.1,45.21-20.75,47.43-13.29,1.43-24.16-2.44-31.08-14.04-6.92-11.59-4.98-23.21,2.28-34.54Z"/>
</svg>